<svg width="1024" height="1024" xmlns="http://www.w3.org/2000/svg" p-id="2687" version="1.1" class="icon" t="1721619811130">

 <g>
  <title>Layer 1</title>
  <path id="svg_1" p-id="2688" fill="#4876F9" d="m160,0l512,0l256,256l0,704c0,35.3472 -28.6528,64 -64,64l-704,0c-35.3472,0 -64,-28.6528 -64,-64l0,-896c0,-35.3472 28.6528,-64 64,-64z"/>
  <path id="svg_2" p-id="2689" fill="#FFFFFF" d="m428.0192,768l77.1072,-282.6688l1.4208,0l76.6336,282.6688l43.0464,0l96.9728,-339.2l-43.52,0l-74.2656,284.5696l-1.8944,0l-76.6336,-284.5696l-42.0992,0l-77.1072,284.5696l-1.8944,0l-74.2656,-284.5696l-43.52,0l96.9728,339.2l43.0464,0z"/>
  <path id="svg_3" p-id="2690" fill="#B5C8FC" d="m672,0l256,256l-192,0c-35.3472,0 -64,-28.6528 -64,-64l0,-192z"/>
 </g>
</svg>
