<svg width="1024" height="1024" xmlns="http://www.w3.org/2000/svg" p-id="1730" version="1.1" class="icon"
     t="1721619676971">

    <g>
        <title>Layer 1</title>
        <path id="svg_1" p-id="1731" fill="#FFA000"
              d="m0,128a51.2,51.2 0 0 1 51.2,-51.2l350.24,0a51.2,51.2 0 0 1 47.0592,31.0336l25.1008,58.5664l499.2,0a51.2,51.2 0 0 1 51.2,51.2l0,537.6a51.2,51.2 0 0 1 -51.2,51.2l-921.6,0a51.2,51.2 0 0 1 -51.2,-51.2l0,-627.2z"/>
        <path id="svg_2" p-id="1732" fill="#FFFFFF"
              d="m89.6,249.6m51.2,0l742.4,0q51.2,0 51.2,51.2l0,460.8q0,51.2 -51.2,51.2l-742.4,0q-51.2,0 -51.2,-51.2l0,-460.8q0,-51.2 51.2,-51.2z"/>
        <path id="svg_3" p-id="1733" fill="#FFCA28"
              d="m0,332.8m51.2,0l921.6,0q51.2,0 51.2,51.2l0,512q0,51.2 -51.2,51.2l-921.6,0q-51.2,0 -51.2,-51.2l0,-512q0,-51.2 51.2,-51.2z"/>
    </g>
</svg>
