<svg width="1024" height="1024" xmlns="http://www.w3.org/2000/svg" p-id="1888" version="1.1" class="icon"
     t="1721619699670">

    <g>
        <title>Layer 1</title>
        <path id="svg_1" p-id="1889" fill="#F6AD00"
              d="m160,0l512,0l256,256l0,704c0,35.3472 -28.6528,64 -64,64l-704,0c-35.3472,0 -64,-28.6528 -64,-64l0,-896c0,-35.3472 28.6528,-64 64,-64z"/>
        <path id="svg_2" p-id="1890" fill="#FFF7F7"
              d="m258.528,742.0672l93.3056,-137.1392a14.5024,14.5024 0 0 1 22.1696,-2.1824l61.664,60.416l135.296,-212.064a14.5024,14.5024 0 0 1 24.8064,0.5568l168.1024,291.328a14.5024,14.5024 0 0 1 -12.5696,21.7664l-480.7744,0a14.5024,14.5024 0 0 1 -12.0064,-22.6816l0.0064,0z"/>
        <path id="svg_3" p-id="1891" fill="#FFFFFF"
              d="m359.616,431.5456m-73.1456,0a73.1456,73.1456 0 1 0 146.2912,0a73.1456,73.1456 0 1 0 -146.2912,0z"/>
        <path id="svg_4" p-id="1892" fill="#FBDE99" d="m672,0l256,256l-192,0c-35.3472,0 -64,-28.6528 -64,-64l0,-192z"/>
    </g>
</svg>
