<svg width="1024" height="1024" xmlns="http://www.w3.org/2000/svg" p-id="2369" version="1.1" class="icon"
     t="1721619763651">

    <g>
        <title>Layer 1</title>
        <path id="svg_1" p-id="2370" fill="#4876F9"
              d="m160,0l512,0l256,256l0,704c0,35.3472 -28.6528,64 -64,64l-704,0c-35.3472,0 -64,-28.6528 -64,-64l0,-896c0,-35.3472 28.6528,-64 64,-64z"/>
        <path id="svg_2" p-id="2371" fill="#FFFFFF"
              d="m472.1152,471.0464c17.984,0 34.9312,3.8592 50.9568,11.5264c12.0128,5.6704 22.8608,13.3888 32.6272,23.104a116.288,116.288 0 0 1 23.104,32.5888c-7.712,7.7184 -16.992,11.5264 -27.84,11.5264a41.472,41.472 0 0 1 -11.5264,-1.7088a80.32,80.32 0 0 0 -26.1888,-26.1824a77.696,77.696 0 0 0 -41.0816,-11.5264c-10.2592,0 -20.224,1.952 -29.8496,5.8624a77.632,77.632 0 0 0 -25.8368,17.2416l-59.1104,59.1104a77.632,77.632 0 0 0 -17.248,25.8432a79.0656,79.0656 0 0 0 -5.8624,29.8432c0,10.2592 1.9584,20.224 5.8624,29.8496a76.416,76.416 0 0 0 17.248,25.8432a77.3824,77.3824 0 0 0 25.8432,17.2416c9.472,3.8592 19.6352,5.8624 29.8944,5.8624c10.2592,0 20.224,-1.952 29.8496,-5.8624a77.632,77.632 0 0 0 25.8368,-17.2416l41.3824,-41.376c13.1392,3.5648 26.72,5.376 40.7872,5.376c2.2464,0 5.4208,-0.1024 9.5232,-0.2944a233.024,233.024 0 0 1 -4.736,5.0752l-59.1104,59.1104c-11.3792,11.3856 -24.2752,19.9808 -38.7392,25.8432a118.496,118.496 0 0 1 -89.6896,-0.0512a117.0048,117.0048 0 0 1 -38.7392,-25.792c-11.3792,-11.3792 -19.9744,-24.2752 -25.8368,-38.688a118.496,118.496 0 0 1 -8.7936,-44.8448c0,-15.3856 2.976,-30.6304 8.7936,-44.8448c5.8624,-14.4128 14.4576,-27.3088 25.8368,-38.688l59.1104,-59.1104c1.1264,-1.1264 2.8352,-2.688 5.0816,-4.7872a116.5696,116.5696 0 0 1 36.7872,-22.2272a119.7824,119.7824 0 0 1 41.664,-7.616l0,-0.0064zm137.9072,-137.856c15.392,0 30.6304,2.9824 44.8448,8.7936c14.4128,5.8112 27.3088,14.464 38.7392,25.8432c11.3856,11.3792 20.032,24.2752 25.8432,38.688a117.7088,117.7088 0 0 1 8.7424,44.8448c0,15.3856 -2.976,30.336 -8.8384,44.8448a116.3136,116.3136 0 0 1 -25.792,38.688l-59.1104,59.1104c-1.1264,1.1712 -2.8352,2.7392 -5.0816,4.7872a115.4944,115.4944 0 0 1 -36.7872,22.2272a118.1312,118.1312 0 0 1 -41.7152,7.616a116.608,116.608 0 0 1 -50.9504,-11.52c-12.0192,-5.6704 -22.8672,-13.3888 -32.64,-23.104a116.288,116.288 0 0 1 -23.104,-32.5888c7.6736,-7.7184 16.96,-11.5264 27.8464,-11.5264c3.8144,0 7.6736,0.5824 11.5328,1.7088a80.1664,80.1664 0 0 0 26.1312,26.1824a77.8176,77.8176 0 0 0 41.088,11.5264c10.2528,0 20.224,-1.952 29.8432,-5.8624a77.1392,77.1392 0 0 0 25.8432,-17.2416l59.1104,-59.1104a76.896,76.896 0 0 0 17.2416,-25.8432c3.8592,-9.472 5.8624,-19.584 5.8624,-29.8432c0,-10.2592 -1.952,-20.224 -5.8624,-29.8496a77.1392,77.1392 0 0 0 -17.2416,-25.8432a77.3824,77.3824 0 0 0 -25.8432,-17.2416a79.2512,79.2512 0 0 0 -29.8496,-5.8624c-10.2592,0 -20.224,1.952 -29.8432,5.8624a77.1392,77.1392 0 0 0 -25.8432,17.2416l-41.4272,41.376a154.976,154.976 0 0 0 -40.7872,-5.376c-2.2528,0 -5.4272,0.1024 -9.5296,0.2944c1.5616,-1.7088 3.1296,-3.4176 4.7872,-5.0752l59.1104,-59.1104a116.3136,116.3136 0 0 1 38.688,-25.792c14.6112,-5.9136 29.5552,-8.896 44.992,-8.8448z"/>
        <path id="svg_3" p-id="2372" fill="#B5C8FC" d="m672,0l256,256l-192,0c-35.3472,0 -64,-28.6528 -64,-64l0,-192z"/>
    </g>
</svg>
