<svg width="1024" height="1024" xmlns="http://www.w3.org/2000/svg" p-id="2527" version="1.1" class="icon" t="1721619786655">

 <g>
  <title>Layer 1</title>
  <path id="svg_1" p-id="2528" fill="#FA4E4E" d="m160,0l512,0l256,256l0,704c0,35.3472 -28.6528,64 -64,64l-704,0c-35.3472,0 -64,-28.6528 -64,-64l0,-896c0,-35.3472 28.6528,-64 64,-64z"/>
  <path id="svg_2" p-id="2529" fill="#FFFFFF" d="m678.304,689.632c-34.5536,-2.5664 -67.8208,-15.3984 -94.6944,-38.496c-52.4672,11.5456 -102.3808,28.224 -152.288,48.7616c-39.6672,70.5728 -76.7808,106.5024 -108.7744,106.5024c-6.4,0 -14.0736,-1.28 -19.1936,-5.1328c-14.08,-6.4128 -21.7536,-20.5312 -21.7536,-34.6432c0,-11.552 2.56,-43.6288 124.128,-96.2432c28.16,-51.328 49.9072,-103.936 67.8272,-159.1104c-15.36,-30.7968 -48.6272,-106.5088 -25.6,-144.9984c7.68,-14.1184 23.04,-21.8176 39.68,-20.5312c12.7936,0 25.5872,6.4128 33.2672,16.6784c16.64,23.0976 15.36,71.8592 -6.4,143.7184a386.9056,386.9056 0 0 0 79.3408,102.656c26.88,-5.1392 53.7472,-8.9856 80.6208,-8.9856c60.1472,1.28 69.1072,29.5104 67.8272,46.1952c0,43.6288 -42.2336,43.6288 -63.9872,43.6288zm-358.3104,79.552l3.84,-1.28c17.9136,-6.4128 31.9872,-19.2448 42.2272,-35.9296c-19.2,7.6992 -34.5536,20.5312 -46.0672,37.216l0,-0.0064zm170.1952,-384.9472l-3.84,0c-1.28,0 -3.84,0 -5.12,1.28c-5.12,21.8112 -1.28,44.9088 7.68,65.44c7.68,-21.8112 7.68,-44.9088 1.28,-66.72zm8.96,186.0608l-1.28,2.56l-1.28,-1.28c-11.52,29.5168 -24.32,59.0272 -38.3936,87.2576l2.56,-1.28l0,2.56a743.6992,743.6992 0 0 1 87.0208,-25.664l-1.28,-1.28l3.84,0c-19.2,-19.2512 -37.1136,-41.0624 -51.1872,-62.8736zm174.0352,68.0064c-11.52,0 -21.7536,0 -33.2736,2.56c12.8,6.4192 25.6,8.9856 38.3936,10.272c8.96,1.28 17.92,0 25.5936,-2.5664c0,-3.8528 -5.12,-10.2656 -30.7136,-10.2656z"/>
  <path id="svg_3" p-id="2530" fill="#FDB8B8" d="m672,0l256,256l-192,0c-35.3472,0 -64,-28.6528 -64,-64l0,-192z"/>
 </g>
</svg>
