<svg width="1024" height="1024" xmlns="http://www.w3.org/2000/svg" p-id="1412" version="1.1" class="icon"
     t="1721619637407">

    <g>
        <title>Layer 1</title>
        <path id="svg_1" p-id="1413" fill="#FF9333"
              d="m160,0l512,0l256,256l0,704c0,35.3472 -28.6528,64 -64,64l-704,0c-35.3472,0 -64,-28.6528 -64,-64l0,-896c0,-35.3472 28.6528,-64 64,-64z"/>
        <path id="svg_2" p-id="1414" fill="#FFFFFF"
              d="m427.8976,768l0,-157.0432l111.8784,0c87.7952,0 132.224,-38.1824 132.224,-114.016c0,-75.296 -43.8976,-112.9408 -131.6864,-112.9408l-156.3136,0l0,384l43.8976,0zm109.7408,-195.2256l-109.7408,0l0,-150.592l109.7408,0c30.5088,0 52.992,5.92 67.9808,18.8288c14.9888,11.2896 22.4832,30.112 22.4832,55.936c0,25.8112 -7.488,44.6336 -21.952,57.0048c-14.9824,12.3648 -37.4656,18.816 -68.512,18.816l0,0.0064z"/>
        <path id="svg_3" p-id="1415" fill="#FFD3AD" d="m672,0l256,256l-192,0c-35.3472,0 -64,-28.6528 -64,-64l0,-192z"/>
    </g>
</svg>
