<svg width="1024" height="1024" xmlns="http://www.w3.org/2000/svg" p-id="1092" version="1.1" class="icon" t="1721619597053">

 <g>
  <title>Layer 1</title>
  <path id="svg_1" p-id="1093" fill="#8289AD" d="m160,0l512,0l256,256l0,704c0,35.3472 -28.6528,64 -64,64l-704,0c-35.3472,0 -64,-28.6528 -64,-64l0,-896c0,-35.3472 28.6528,-64 64,-64z"/>
  <path id="svg_2" p-id="1094" fill="#FFFFFF" d="m536.9088,768l0,-345.8176l135.0912,0l0,-38.1824l-313.6,0l0,38.1824l135.0912,0l0,345.8176l43.4176,0z"/>
  <path id="svg_3" p-id="1095" fill="#CDCFDE" d="m672,0l256,256l-192,0c-35.3472,0 -64,-28.6528 -64,-64l0,-192z"/>
 </g>
</svg>
