<svg width="1024" height="1024" xmlns="http://www.w3.org/2000/svg" p-id="2049" version="1.1" class="icon"
     t="1721619721910">

    <g>
        <title>Layer 1</title>
        <path id="svg_1" p-id="2050" fill="#CCCCCC"
              d="m160,0l512,0l256,256l0,704c0,35.3472 -28.6528,64 -64,64l-704,0c-35.3472,0 -64,-28.6528 -64,-64l0,-896c0,-35.3472 28.6528,-64 64,-64z"/>
        <path id="svg_2" p-id="2051" fill="#EAEAEA" d="m672,0l256,256l-192,0c-35.3472,0 -64,-28.6528 -64,-64l0,-192z"/>
        <path id="svg_3" p-id="2052" fill="#FFFFFF"
              d="m384,499.2c0,-25.6 5.12,-46.08 10.24,-58.88c5.12,-12.8 15.36,-25.6 28.16,-35.84c12.8,-12.8 25.6,-20.48 43.52,-25.6c15.36,-5.12 30.72,-7.68 48.64,-7.68c35.84,0 64,10.24 89.6,30.72c23.04,20.48 35.84,46.08 35.84,79.36c0,15.36 -5.12,28.16 -10.24,40.96s-17.92,28.16 -38.4,46.08s-28.16,30.72 -35.84,38.4c-7.68,7.68 -10.24,17.92 -15.36,28.16c-5.12,10.24 -2.56,17.92 -2.56,43.52l-51.2,0c0,-25.6 2.56,-38.4 5.12,-51.2s7.68,-23.04 15.36,-33.28s15.36,-23.04 33.28,-40.96c17.92,-17.92 30.72,-30.72 35.84,-38.4c5.12,-7.68 10.24,-20.48 10.24,-38.4s-7.68,-30.72 -20.48,-43.52s-30.72,-20.48 -53.76,-20.48c-51.2,0 -76.8,35.84 -76.8,87.04l-51.2,0zm153.6,281.6l-51.2,0l0,-51.2l51.2,0l0,51.2z"/>
    </g>
</svg>
