<svg width="1024" height="1024" xmlns="http://www.w3.org/2000/svg" p-id="1572" version="1.1" class="icon"
     t="1721619660711">

    <g>
        <title>Layer 1</title>
        <path id="svg_1" p-id="1573" fill="#7C8EEE"
              d="m160,0l512,0l256,256l0,704c0,35.3472 -28.6528,64 -64,64l-704,0c-35.3472,0 -64,-28.6528 -64,-64l0,-896c0,-35.3472 28.6528,-64 64,-64z"/>
        <path id="svg_2" p-id="1574" fill="#FFFFFF"
              d="m702.2976,579.2896l-298.5664,177.984c-19.9488,12.0192 -45.3312,-2.4128 -45.3312,-25.856l0,-355.968c0,-22.848 25.3824,-37.2736 45.3312,-25.856l298.56,177.984c19.3408,12.032 19.3408,40.288 0,51.712l0.0064,0z"/>
        <path id="svg_3" p-id="1575" fill="#CAD1F8" d="m672,0l256,256l-192,0c-35.3472,0 -64,-28.6528 -64,-64l0,-192z"/>
    </g>
</svg>
