<svg width="1024" height="1024" xmlns="http://www.w3.org/2000/svg" p-id="1252" version="1.1" class="icon"
     t="1721619615552">

    <g>
        <title>Layer 1</title>
        <path id="svg_1" p-id="1253" fill="#4CB050"
              d="m160,0l512,0l256,256l0,704c0,35.3472 -28.6528,64 -64,64l-704,0c-35.3472,0 -64,-28.6528 -64,-64l0,-896c0,-35.3472 28.6528,-64 64,-64z"/>
        <path id="svg_2" p-id="1254" fill="#FFFFFF"
              d="m400.256,768l114.656,-164.5696l115.2512,164.5696l54.6368,0l-143.3792,-199.5264l133.056,-184.4736l-54.6368,0l-104.928,149.5104l-104.416,-149.5104l-54.6176,0l131.9872,184.4736l-142.2656,199.5264l54.656,0z"/>
        <path id="svg_3" p-id="1255" fill="#B7DFB9" d="m672,0l256,256l-192,0c-35.3472,0 -64,-28.6528 -64,-64l0,-192z"/>
    </g>
</svg>
