<svg t="1721719077505" class="icon" viewBox="0 0 1024 1024" version="1.1" xmlns="http://www.w3.org/2000/svg" p-id="7759" width="200" height="200"><path d="M677.504 64a64 64 0 0 1 45.226667 18.773333l154.538666 154.453334A64 64 0 0 1 896 282.538667V896a64 64 0 0 1-64 64h-640A64 64 0 0 1 128 896V128a64 64 0 0 1 64-64h485.504z m0.298667 467.413333c-48.469333 0-76.586667 18.048-76.586667 82.773334 0 64.768 28.117333 82.816 76.586667 82.816 26.026667 0 49.066667-5.034667 58.538666-10.666667v-30.122667c-10.922667 5.290667-32.810667 10.922667-52.053333 10.922667-31.914667 0-44.928-12.117333-45.781333-39.04l104.661333-6.784c0.853333-5.632 1.450667-13.013333 1.450667-20.992 0-37.546667-11.52-68.906667-66.816-68.906667zM558.336 469.333333h-36.949333v187.477334c0 27.178667 11.264 38.997333 42.88 38.997333 6.528 0 12.416-0.554667 17.749333-1.749333v-29.013334a36.693333 36.693333 0 0 1-9.770667 1.194667c-10.325333 0-13.909333-3.242667-13.909333-18.346667V469.333333z m-155.221333 19.498667H281.6v205.226667h38.741333v-83.669334H397.226667v-33.706666H320.341333v-54.144h82.773334v-33.706667z m72.149333 45.568h-36.949333v159.658667h36.949333v-159.658667z m202.538667 25.429333c28.373333 0 32.512 16.853333 32.512 36.650667l-71.808 5.333333c0.853333-27.52 9.728-41.984 39.296-41.984z m-220.885334-89.898666c-16.554667 0-20.992 1.749333-20.992 19.797333 0 17.749333 4.437333 20.096 20.992 20.096 16.597333 0 21.034667-2.346667 21.034667-20.053333 0-18.090667-4.437333-19.84-21.034667-19.84z" fill="#1296db" p-id="7760"></path></svg>
